<?xml version="1.0" standalone="no"?>
<!DOCTYPE svg PUBLIC "-//W3C//DTD SVG 20010904//EN"
 "http://www.w3.org/TR/2001/REC-SVG-20010904/DTD/svg10.dtd">
<svg version="1.0" xmlns="http://www.w3.org/2000/svg"
 width="352.000000pt" height="396.000000pt" viewBox="0 0 352.000000 396.000000"
 preserveAspectRatio="xMidYMid meet">

<g transform="translate(0.000000,396.000000) scale(0.100000,-0.100000)"
fill="#000000" stroke="none">
<path d="M1245 3693 c-192 -2 -323 -7 -329 -13 -6 -6 -17 -10 -25 -10 -9 -1
-34 -19 -56 -40 l-40 -40 -3 -675 c-1 -371 -6 -675 -10 -675 -4 0 -32 28 -62
62 -30 34 -66 73 -78 87 -13 14 -32 37 -42 51 l-18 24 -12 -57 c-11 -47 -21
-64 -64 -105 -35 -33 -63 -51 -89 -56 -31 -6 -36 -10 -27 -24 18 -31 37 -52
48 -52 6 0 13 -8 16 -17 4 -10 51 -65 106 -122 55 -57 100 -106 100 -108 0 -2
31 -36 70 -76 38 -39 70 -80 70 -90 0 -10 5 -15 10 -12 6 3 10 2 10 -3 0 -5
11 -15 25 -22 14 -7 25 -18 25 -24 0 -5 33 -42 73 -82 39 -39 92 -95 117 -123
25 -29 57 -66 73 -82 15 -16 27 -33 27 -39 0 -5 11 -12 25 -16 14 -3 25 -10
25 -14 0 -5 24 -33 53 -62 30 -30 59 -63 65 -73 5 -11 13 -118 16 -240 l6
-220 195 -3 195 -2 0 264 0 264 -55 56 c-31 31 -63 56 -71 56 -28 0 -134 60
-165 95 -18 19 -36 32 -41 29 -5 -3 -8 -2 -7 3 3 19 -15 53 -31 58 -9 3 -21
14 -26 25 -5 10 -37 49 -71 87 -114 125 -158 175 -178 204 -11 16 -26 29 -33
29 -7 0 -15 8 -19 18 -3 9 -20 31 -37 48 -17 18 -44 49 -61 70 -16 21 -40 48
-52 60 -13 12 -23 26 -23 31 0 6 -16 23 -35 38 l-36 26 3 668 3 668 26 34 c44
56 63 74 92 87 22 9 163 12 584 12 306 0 559 -2 562 -5 3 -3 -1 -31 -8 -63 -8
-31 -17 -88 -22 -127 -4 -38 -15 -97 -23 -130 -27 -105 -53 -95 249 -95 l265
0 0 -267 0 -268 35 -40 c19 -22 39 -45 45 -52 14 -17 13 -30 -7 -51 -10 -10
-30 -32 -44 -48 l-25 -30 -3 -238 c-1 -152 -6 -246 -13 -259 -6 -12 -25 -35
-42 -53 -32 -32 -61 -65 -131 -149 -22 -26 -61 -70 -87 -97 -27 -27 -48 -53
-48 -58 0 -5 -4 -10 -8 -12 -4 -1 -21 -25 -36 -53 -43 -76 -122 -146 -197
-175 -68 -26 -99 -47 -99 -66 0 -7 -16 -22 -35 -34 l-35 -22 0 -269 0 -269
108 0 c73 0 112 4 121 13 11 10 13 10 7 0 -6 -10 13 -13 79 -13 l86 0 -1 133
c-1 72 -1 180 -1 239 l1 107 43 45 c23 24 78 84 122 132 44 48 99 107 123 132
l42 45 0 -99 c0 -76 3 -95 12 -86 21 21 29 13 13 -12 -10 -15 -12 -27 -6 -30
5 -4 12 -2 16 4 13 21 24 9 13 -15 -8 -19 -8 -28 2 -40 19 -23 0 -18 -27 7
-22 20 -23 21 -23 2 0 -10 9 -25 20 -32 12 -7 18 -17 14 -23 -4 -7 -11 -6 -20
2 -12 10 -14 -31 -14 -285 l0 -296 -292 0 c-161 0 -381 -1 -489 -1 l-196 0
-11 -37 c-7 -20 -17 -77 -23 -127 -6 -49 -15 -99 -19 -110 -4 -11 -12 -47 -17
-80 l-8 -60 -225 -3 c-294 -4 -319 -1 -368 46 -64 64 -66 73 -72 327 l-6 230
-2 -258 c-2 -253 -1 -260 20 -290 29 -42 44 -54 95 -78 40 -19 64 -20 570 -18
290 1 654 4 808 8 l280 6 42 30 c24 17 43 35 43 41 0 6 7 17 15 24 13 11 15
104 15 723 l0 710 33 34 c17 19 56 59 85 88 28 30 52 56 52 59 0 3 26 32 58
64 31 32 67 69 79 83 12 13 28 30 35 37 7 8 25 26 39 40 14 15 28 35 32 45 3
9 11 17 17 17 27 0 5 19 -33 28 -44 12 -117 73 -117 99 0 7 -3 13 -7 13 -11 0
-33 50 -33 74 0 23 -31 -7 -140 -133 -30 -36 -64 -73 -75 -83 -20 -19 -20 -19
-23 4 -2 13 -9 29 -15 37 -9 12 -9 13 1 7 9 -6 12 124 12 634 0 610 -1 643
-19 678 -22 43 -68 92 -87 92 -7 0 -14 6 -16 13 -5 12 -566 17 -1323 10z m383
-2775 c-2 -16 -11 -24 -28 -27 -14 -1 -27 -7 -30 -11 -8 -13 -111 -51 -121
-45 -16 10 -10 23 14 31 12 4 24 10 27 13 7 10 113 60 128 60 8 1 12 -8 10
-21z m385 -19 c45 -23 84 -45 85 -50 2 -5 9 -6 15 -3 7 4 4 -1 -5 -11 -12 -13
-21 -15 -30 -8 -7 6 -34 18 -60 28 -27 10 -48 22 -48 26 0 5 -11 9 -24 9 -25
0 -37 15 -28 38 6 17 4 17 95 -29z m-169 -338 c3 -5 -2 -15 -12 -22 -15 -12
-16 -12 -5 2 7 9 10 19 6 22 -3 4 -4 7 0 7 3 0 8 -4 11 -9z m-130 -37 c3 -8 2
-12 -4 -9 -6 3 -10 10 -10 16 0 14 7 11 14 -7z m141 -144 c-3 -5 -12 -10 -18
-10 -7 0 -6 4 3 10 19 12 23 12 15 0z m-165 -4 c0 -2 -7 -7 -16 -10 -8 -3 -12
-2 -9 4 6 10 25 14 25 6z m-85 -86 c-3 -5 -12 -10 -18 -10 -7 0 -6 4 3 10 19
12 23 12 15 0z"/>
<path d="M2975 3501 c-20 -4 -26 -9 -17 -14 6 -5 12 -17 12 -28 0 -15 7 -19
33 -19 40 1 67 20 67 49 0 17 -6 21 -32 20 -18 -1 -46 -4 -63 -8z"/>
<path d="M1680 3453 c-125 -4 -140 -8 -140 -37 0 -32 33 -45 105 -42 33 2 108
4 167 6 94 2 107 4 111 20 3 10 -2 28 -10 39 -12 18 -23 21 -76 19 -34 -1
-105 -3 -157 -5z"/>
<path d="M380 3309 c0 -5 -4 -7 -10 -4 -6 3 -7 -1 -4 -10 5 -11 2 -14 -12 -8
-11 4 -15 3 -11 -4 4 -6 1 -13 -5 -16 -10 -3 -10 -9 -1 -25 12 -20 8 -32 -11
-32 -6 0 -4 5 4 10 17 11 10 13 -14 4 -9 -3 -14 -10 -11 -14 3 -5 1 -11 -5
-15 -5 -3 -10 -10 -10 -15 0 -5 17 0 38 11 27 15 32 16 17 4 -20 -17 -20 -17
3 -12 18 4 22 2 18 -10 -3 -8 -6 -19 -6 -24 0 -5 -12 -9 -26 -9 -15 0 -23 4
-19 11 4 6 14 8 22 4 13 -4 14 -3 3 10 -16 20 -28 19 -32 -2 -4 -19 17 -60 42
-80 12 -10 12 -14 3 -21 -9 -6 -10 -17 -4 -40 6 -19 6 -34 0 -37 -5 -4 -9 -11
-9 -17 0 -6 8 -4 18 5 15 14 19 15 19 2 0 -8 -4 -12 -8 -10 -8 6 -26 -14 -31
-35 -2 -8 -9 -21 -16 -29 -8 -8 -11 -22 -9 -32 3 -11 0 -22 -5 -26 -7 -4 -4
-11 7 -20 11 -7 16 -14 12 -14 -4 -1 -13 -2 -19 -3 -7 -1 -11 -8 -9 -16 2 -8
4 -21 4 -28 0 -10 13 -13 47 -10 30 3 51 0 58 -9 7 -7 17 -13 21 -13 14 0 31
59 31 109 0 25 7 68 15 95 8 27 15 62 15 77 0 21 7 30 29 40 36 16 66 70 69
124 2 48 -26 108 -53 114 -17 3 -18 2 -5 -15 8 -10 10 -15 4 -11 -6 3 -11 -1
-11 -9 0 -9 6 -13 16 -9 9 3 3 -6 -14 -19 -16 -14 -24 -25 -17 -26 6 0 12 5
12 10 0 6 5 10 11 10 8 0 9 -4 0 -13 -6 -8 -8 -17 -4 -21 4 -4 -1 -4 -12 0
-19 8 -19 7 -2 -19 9 -15 13 -27 7 -27 -5 0 -10 5 -10 10 0 6 -5 10 -11 10 -6
0 -8 -8 -5 -17 5 -15 4 -15 -9 1 -14 19 -21 11 -16 -17 1 -5 -3 -6 -9 -2 -6 3
-8 10 -6 14 3 4 -2 8 -10 8 -8 0 -13 -6 -10 -13 3 -8 0 -11 -10 -7 -8 3 -13
12 -10 19 3 8 2 14 -3 14 -20 0 -28 46 -15 95 17 63 17 65 -1 65 -8 0 -15 -5
-15 -11z m183 -156 c-3 -7 -8 -13 -12 -13 -4 0 -8 6 -8 13 0 8 6 14 13 14 7 0
10 -6 7 -14z m-174 -9 c4 3 8 -1 8 -9 0 -11 -4 -12 -14 -4 -7 6 -13 17 -12 23
0 7 2 6 6 -2 2 -6 8 -10 12 -8z m151 -28 c0 -2 -7 -7 -16 -10 -8 -3 -12 -2 -9
4 6 10 25 14 25 6z m-144 -37 c0 -19 -4 -25 -13 -22 -11 4 -12 -1 -8 -20 4
-15 2 -28 -6 -32 -9 -6 -11 -2 -7 13 4 13 1 22 -5 22 -7 1 -1 10 12 20 18 15
21 23 12 33 -8 10 -7 14 2 14 8 0 13 -12 13 -28z m119 -5 c-18 -18 -20 -18
-22 5 -1 14 3 17 17 14 17 -4 17 -7 5 -19z m-67 -8 c12 1 25 -4 29 -10 3 -6 3
-8 -2 -4 -4 4 -14 0 -22 -10 -12 -16 -14 -16 -28 2 -8 11 -15 25 -15 30 0 8 3
8 8 1 4 -6 17 -10 30 -9z m2 -50 c0 -2 -7 -7 -16 -10 -8 -3 -12 -2 -9 4 6 10
25 14 25 6z m6 -41 c1 -8 -4 -19 -12 -26 -12 -9 -13 -9 -9 3 4 11 0 15 -12 14
-10 0 -19 4 -20 9 -1 6 6 9 17 9 11 -1 20 3 20 9 0 14 13 0 16 -18z m-110 -81
c-9 -8 -16 -11 -16 -6 0 5 3 12 8 16 4 4 8 12 8 17 3 21 7 23 11 7 2 -10 -3
-25 -11 -34z m91 6 c1 -11 -3 -20 -8 -20 -6 0 -8 -4 -5 -8 2 -4 -4 -9 -15 -9
-10 -1 -19 3 -19 8 0 6 5 7 10 4 6 -3 14 5 20 19 11 31 15 32 17 6z m-94 -46
c-2 -7 -12 -15 -20 -18 -12 -5 -13 -4 -5 7 7 8 10 16 7 19 -3 2 1 5 9 5 8 0
12 -6 9 -13z m66 -30 c4 3 7 -3 7 -13 0 -10 -6 -18 -12 -18 -6 0 -11 12 -11
26 0 14 2 20 4 13 3 -6 8 -10 12 -8z m-89 -44 c6 -11 8 -20 6 -20 -3 0 -10 9
-16 20 -6 11 -8 20 -6 20 3 0 10 -9 16 -20z m90 -4 c0 -2 -7 -6 -15 -10 -8 -3
-15 -1 -15 4 0 6 7 10 15 10 8 0 15 -2 15 -4z"/>
<path d="M1515 2962 c-6 -5 -33 -14 -61 -20 -60 -13 -134 -43 -134 -54 0 -5
-5 -8 -10 -8 -20 0 -93 -80 -105 -115 -7 -19 -9 -35 -5 -35 4 0 12 -11 18 -24
6 -13 20 -27 32 -31 29 -9 16 -23 -16 -17 -24 4 -26 2 -22 -21 4 -18 1 -24 -9
-20 -10 4 -13 -16 -13 -101 l0 -106 560 0 c308 0 560 4 560 8 0 5 -13 21 -28
38 -25 25 -28 37 -30 97 -1 53 2 67 13 67 8 0 15 6 15 14 0 8 14 26 30 39 34
29 41 75 15 101 -8 8 -15 18 -15 23 0 12 -76 83 -88 83 -6 0 -12 5 -14 11 -2
6 -48 26 -103 44 l-100 34 -240 1 c-133 0 -245 -4 -250 -8z m580 -62 c3 -6 -1
-7 -9 -4 -18 7 -21 14 -7 14 6 0 13 -4 16 -10z m-841 -126 c-18 -26 -11 -45 8
-26 19 19 30 14 18 -8 -8 -14 -8 -26 0 -40 16 -31 -2 -24 -39 14 l-34 35 24
29 c28 35 46 32 23 -4z"/>
<path d="M3154 2885 c-4 -10 -11 -12 -22 -6 -20 10 -45 3 -36 -10 3 -5 0 -9
-5 -9 -6 0 -11 -9 -11 -20 0 -11 -6 -20 -13 -20 -17 0 -16 -38 1 -45 10 -4 12
0 8 10 -3 9 -2 13 4 10 5 -3 8 -16 6 -28 -3 -12 -5 -24 -5 -27 -1 -3 -6 2 -11
10 -6 9 -10 10 -10 3 0 -16 17 -26 25 -13 4 6 10 8 14 5 5 -2 23 0 42 5 22 6
46 6 72 -1 29 -8 43 -7 51 1 8 8 6 9 -8 4 -16 -6 -17 -4 -7 13 8 17 7 24 -7
34 -16 13 -16 12 -2 -6 14 -19 14 -19 -2 -6 -10 7 -15 17 -12 22 11 18 13 49
3 49 -6 0 -7 6 -3 13 4 6 4 9 -1 5 -4 -4 -14 -1 -22 7 -19 19 -42 19 -49 0z
m20 -10 c-4 -8 -8 -15 -10 -15 -2 0 -4 7 -4 15 0 8 4 15 10 15 5 0 7 -7 4 -15z
m-48 -22 c2 -9 -4 -22 -12 -30 -8 -8 -14 -10 -14 -4 0 5 4 12 9 16 6 3 8 15 6
27 -3 11 -1 18 2 14 4 -4 8 -14 9 -23z m94 -3 c0 -5 -7 -7 -15 -4 -8 4 -12 10
-9 15 6 11 24 2 24 -11z m-25 -29 c-3 -6 -15 -11 -26 -11 -11 0 -19 -7 -20
-17 0 -14 -2 -15 -6 -3 -3 8 -10 18 -16 21 -5 4 3 7 18 7 14 0 31 4 38 11 13
13 22 7 12 -8z m-15 -45 c0 -2 -7 -7 -16 -10 -8 -3 -12 -2 -9 4 6 10 25 14 25
6z"/>
<path d="M1190 2691 c0 -12 5 -21 10 -21 6 0 10 6 10 14 0 8 -4 18 -10 21 -5
3 -10 -3 -10 -14z"/>
<path d="M2530 2623 c0 -48 3 -63 14 -63 53 0 61 43 16 92 l-29 33 -1 -62z"/>
<path d="M2308 2651 c-41 -48 -51 -71 -38 -86 7 -9 10 -28 6 -48 -5 -29 -1
-37 29 -67 l35 -34 0 127 c0 70 -3 127 -8 127 -4 0 -15 -9 -24 -19z"/>
<path d="M1194 2238 c10 -144 22 -211 50 -271 26 -58 26 -59 6 -64 -12 -3 -19
-8 -17 -12 2 -3 9 -21 16 -38 7 -18 16 -33 20 -33 5 0 8 91 7 203 0 186 1 206
21 250 l22 47 -66 0 -65 0 6 -82z"/>
<path d="M2220 2315 c0 -2 8 -24 18 -47 14 -36 17 -74 17 -223 0 -99 -3 -200
-7 -225 -5 -31 -4 -38 2 -22 5 12 14 22 20 22 5 0 10 10 10 23 0 13 6 29 13
36 10 10 9 14 -4 21 -16 10 -16 53 1 75 21 27 50 181 50 260 l0 85 -60 0 c-33
0 -60 -2 -60 -5z"/>
<path d="M3308 2269 c-18 -14 -25 -25 -21 -37 6 -16 6 -16 -9 -1 -14 13 -24
14 -69 5 -50 -10 -51 -11 -24 -17 28 -6 28 -7 5 -9 -14 -1 -19 -4 -12 -7 10
-4 10 -8 0 -21 -11 -13 -11 -14 1 -7 11 6 13 4 8 -8 -4 -11 -2 -14 9 -10 20 7
18 -7 -3 -23 -17 -12 -17 -12 2 -11 15 2 20 -4 19 -22 -1 -21 1 -22 11 -8 9
13 15 14 26 4 7 -7 6 -3 -4 9 -13 16 -14 23 -5 32 17 17 33 15 19 -2 -8 -10
-9 -16 -1 -21 5 -3 10 -15 10 -25 0 -15 5 -17 28 -11 15 5 26 14 24 20 -1 7 2
10 8 6 5 -3 10 -1 10 5 0 6 4 9 9 5 5 -3 12 4 16 15 4 12 11 17 18 13 8 -4 8
-2 -1 9 -7 8 -10 22 -6 31 3 8 1 18 -4 21 -6 3 -8 15 -5 26 4 14 0 20 -10 20
-9 0 -17 9 -19 19 -3 19 -3 19 -30 0z m-43 -38 c3 -5 1 -12 -5 -16 -5 -3 -10
1 -10 9 0 18 6 21 15 7z m95 5 c0 -3 -4 -8 -10 -11 -5 -3 -10 -1 -10 4 0 6 5
11 10 11 6 0 10 -2 10 -4z m1 -49 c-7 -7 -7 -14 0 -23 8 -10 5 -12 -16 -8 -16
3 -24 1 -21 -5 4 -5 -3 -16 -14 -24 -11 -7 -17 -17 -12 -22 4 -4 -3 -2 -15 4
-13 6 -23 14 -23 17 0 3 4 3 8 0 4 -2 14 -1 22 5 10 6 11 9 3 9 -7 0 -13 4
-13 10 0 5 7 6 17 3 12 -5 14 -3 8 8 -4 8 -5 11 0 7 12 -11 47 12 41 27 -3 9
0 12 10 8 11 -4 12 -9 5 -16z"/>
<path d="M3351 2274 c0 -11 3 -14 6 -6 3 7 2 16 -1 19 -3 4 -6 -2 -5 -13z"/>
<path d="M180 2231 c0 -10 3 -11 14 -2 11 9 16 9 22 0 4 -7 3 -9 -2 -6 -5 3
-21 -3 -34 -14 -26 -20 -12 -26 20 -9 15 8 24 6 38 -8 14 -14 24 -17 36 -10 9
5 14 13 11 19 -4 5 -1 9 4 9 14 0 14 -17 1 -25 -6 -4 -8 -10 -5 -15 3 -5 0
-12 -6 -16 -8 -5 -9 -3 -4 6 5 8 3 11 -6 8 -8 -3 -13 -11 -11 -17 1 -7 -2 -10
-6 -7 -5 3 -21 -5 -36 -19 -15 -14 -32 -24 -38 -22 -7 1 -19 -11 -27 -28 -9
-16 -22 -31 -29 -33 -8 -1 -11 2 -8 7 4 5 2 12 -3 15 -10 6 -25 -23 -16 -32 3
-3 5 -2 5 2 0 4 10 1 22 -5 19 -10 20 -13 6 -23 -18 -13 -12 -29 15 -39 14 -5
17 -1 17 28 0 18 5 37 10 40 6 3 10 15 10 25 0 10 9 21 19 25 14 4 18 12 14
23 -3 9 -3 14 2 10 4 -4 15 -2 23 5 13 10 14 9 3 -11 -9 -18 -9 -22 1 -20 7 2
18 9 23 16 9 11 13 11 24 -2 7 -9 17 -14 21 -11 5 3 11 1 14 -4 9 -13 -19 -8
-37 8 -14 11 -16 9 -14 -8 1 -11 7 -23 14 -25 7 -3 13 -16 14 -28 1 -21 2 -20
15 7 l14 30 -2 -37 c-1 -21 -6 -38 -11 -38 -4 0 -6 -4 -2 -9 3 -5 1 -12 -4
-16 -6 -3 -8 3 -6 15 3 17 1 19 -16 9 -16 -8 -18 -14 -9 -24 8 -10 7 -16 -7
-24 -16 -9 -15 -10 8 -11 42 0 99 73 99 128 0 35 -26 102 -40 102 -6 0 -10 16
-10 36 0 33 -2 35 -27 33 -16 -1 -35 1 -43 4 -27 11 -80 3 -80 -12z m126 -85
c0 -14 -6 -22 -13 -19 -9 4 -9 9 0 24 15 24 15 24 13 -5z"/>
<path d="M1488 2243 c-18 -5 -31 -30 -23 -44 4 -5 17 -1 31 8 20 13 30 14 49
5 14 -7 25 -16 25 -22 0 -6 5 -8 10 -5 15 9 12 19 -10 43 -20 21 -44 25 -82
15z"/>
<path d="M1961 2226 c-13 -14 -20 -29 -16 -35 10 -17 23 -13 30 9 8 24 37 26
59 4 19 -19 38 -10 29 14 -15 39 -69 44 -102 8z"/>
<path d="M182 2181 c-11 -7 -10 -9 3 -15 20 -7 10 -26 -13 -25 -10 0 -12 3 -5
6 10 3 9 8 -3 20 -13 14 -16 14 -30 -3 -14 -18 -14 -18 -8 1 5 19 5 19 -6 1
-10 -14 -9 -21 4 -34 25 -26 66 -23 77 5 4 12 13 23 19 23 6 0 8 -6 4 -12 -5
-9 -2 -9 9 1 22 18 22 18 -10 17 -17 0 -27 4 -25 12 2 14 1 14 -16 3z"/>
<path d="M94 2107 c1 -14 7 -22 18 -21 10 1 14 -4 11 -12 -8 -22 3 -16 20 9
14 21 14 23 -2 22 -9 0 -22 -4 -29 -8 -8 -5 -10 -3 -6 6 3 8 1 18 -4 21 -5 3
-9 -5 -8 -17z"/>
<path d="M1419 2082 c-28 -24 -20 -52 16 -52 14 0 25 -4 25 -10 0 -13 93 -13
106 -1 5 5 20 11 34 13 36 5 37 34 1 52 -44 23 -152 21 -182 -2z"/>
<path d="M1918 2086 c-59 -45 51 -93 147 -65 36 11 45 18 45 36 0 12 -9 27
-19 33 -28 15 -152 12 -173 -4z"/>
<path d="M1780 2006 c0 -12 28 -55 34 -51 3 3 2 0 -3 -6 -6 -8 1 -30 21 -66
17 -30 28 -57 24 -60 -3 -3 -26 -5 -51 -5 -25 1 -45 -2 -45 -7 0 -6 31 -10 69
-10 l69 0 -13 27 c-7 15 -26 53 -42 85 -15 31 -32 66 -38 77 -8 17 -25 28 -25
16z"/>
<path d="M1570 1743 c1 -41 31 -166 44 -184 9 -13 16 -30 16 -39 1 -21 69 -67
113 -75 81 -16 148 34 180 135 15 44 37 141 37 160 0 6 -78 10 -195 10 -107 0
-195 -3 -195 -7z"/>
<path d="M803 1590 c0 -36 2 -50 4 -32 2 17 2 47 0 65 -2 17 -4 3 -4 -33z"/>
<path d="M804 1170 c0 -173 2 -244 3 -157 2 86 2 228 0 315 -1 86 -3 15 -3
-158z"/>
</g>
</svg>
